# xmcd
# 
# Track frame offsets:
#     150
#     12213
#     25774
#     37800
#     53970
#     63156
#     79021
#     91082
#     104354
#     122726
#     135333
#     153292
# 
# Disc length: 2271
# 
# Revision: 0
# Processed by: cddbd v1.5.2PL0 Copyright (c) Steve Scherf et al.
# Submitted via: fre:ac v1.0.31
# 
DISCID=8208dd0c
DTITLE=Various Artist - Country Music
DYEAR=2005
DGENRE=Country
TTITLE0=Charlie Rich - The Most Beautiful Girl
TTITLE1=John Denver - Annie's Song (Live)
TTITLE2=Dolly Parton - Jolene
TTITLE3=The Charlie Daniels Band - The Devil Went Down To Georgia
TTITLE4=Frankie Lane - Rawhide
TTITLE5=Willie Nelson - Always On My Mind
TTITLE6=Tammy Wynette - Stand By Your Man
TTITLE7=Lynn Anderson - Rose Garden
TTITLE8=Kris Kristofferson - Me And Bobby McGee
TTITLE9=Roy Orbison - Crying
TTITLE10=Billy Swan - I Can Help
TTITLE11=Dr. Hook - Sylvia's Mother
EXTD=
EXTT0=
EXTT1=
EXTT2=
EXTT3=
EXTT4=
EXTT5=
EXTT6=
EXTT7=
EXTT8=
EXTT9=
EXTT10=
EXTT11=
PLAYORDER=
